<?xml version="1.0" standalone="no"?>
<!DOCTYPE svg PUBLIC "-//W3C//DTD SVG 20010904//EN"
 "http://www.w3.org/TR/2001/REC-SVG-20010904/DTD/svg10.dtd">
<svg version="1.0" xmlns="http://www.w3.org/2000/svg"
 width="97.000000pt" height="83.000000pt" viewBox="0 0 97.000000 83.000000"
 preserveAspectRatio="xMidYMid meet">

<g transform="translate(0.000000,83.000000) scale(0.100000,-0.100000)"
fill="#000000" stroke="none">
<path d="M470 725 c0 -14 -5 -25 -12 -25 -9 0 -9 -3 0 -12 7 -7 12 -39 12 -75
0 -55 -2 -63 -19 -63 -27 0 -68 36 -73 65 -3 14 -1 25 6 25 6 0 3 5 -7 11 -24
14 -55 3 -39 -13 7 -7 12 -20 12 -29 0 -27 49 -78 83 -87 27 -7 33 -14 35 -40
3 -27 0 -32 -18 -32 -30 0 -90 33 -123 68 -32 33 -49 91 -35 116 12 21 -13 32
-39 17 -10 -6 -12 -11 -5 -11 7 0 12 -13 12 -32 0 -79 63 -151 162 -184 45
-15 48 -18 48 -51 l0 -36 -42 7 c-63 10 -138 57 -176 108 -39 55 -73 175 -52
188 20 12 -26 23 -47 11 -10 -6 -13 -11 -6 -11 6 0 15 -21 19 -47 22 -154 101
-245 239 -276 l60 -13 3 -52 c3 -46 1 -52 -16 -52 -13 0 -22 -10 -28 -32 -8
-26 -16 -34 -39 -38 -18 -3 -31 -12 -33 -23 -3 -15 9 -17 133 -17 124 0 136 2
133 17 -2 11 -15 20 -33 23 -23 4 -31 12 -39 38 -6 21 -15 32 -27 32 -16 0
-19 8 -19 54 l0 53 46 7 c141 19 235 121 258 279 4 26 13 47 19 47 7 0 4 5 -6
11 -21 12 -67 1 -47 -11 21 -13 -13 -133 -53 -189 -36 -50 -114 -97 -179 -108
-38 -6 -38 -6 -38 30 0 33 3 36 48 51 99 33 162 105 162 184 0 19 5 32 13 32
6 0 4 5 -6 11 -29 17 -39 6 -41 -48 -1 -43 -7 -58 -31 -83 -34 -37 -95 -70
-125 -70 -18 0 -21 5 -18 32 2 26 9 33 37 43 38 12 81 57 81 84 0 9 5 22 12
29 16 16 -15 27 -39 13 -10 -6 -13 -11 -6 -11 18 0 -5 -57 -30 -75 -45 -31
-57 -21 -57 48 0 36 5 68 12 75 9 9 9 12 0 12 -7 0 -12 11 -12 25 0 16 -6 25
-15 25 -9 0 -15 -9 -15 -25z"/>
</g>
</svg>
